HIERARCHY
ROOT Hips
{
	OFFSET 0.000000 0.000000 0.000000
	CHANNELS 6 Xposition Yposition Zposition Zrotation Yrotation Xrotation 
	JOINT LHipJoint
	{
		OFFSET 0.000000 0.000000 0.000000
		CHANNELS 3 Zrotation Yrotation Xrotation
		JOINT LeftUpLeg
		{
			OFFSET 1.363060 -1.794630 0.839290
			CHANNELS 3 Zrotation Yrotation Xrotation
			JOINT LeftLeg
			{
				OFFSET 2.448110 -6.726130 0.000000
				CHANNELS 3 Zrotation Yrotation Xrotation
				JOINT LeftFoot
				{
					OFFSET 2.562200 -7.039590 0.000000
					CHANNELS 3 Zrotation Yrotation Xrotation
					JOINT LeftToeBase
					{
						OFFSET 0.157640 -0.433110 2.322550
						CHANNELS 3 Zrotation Yrotation Xrotation
						End Site
						{
							OFFSET 0.000000 0.000000 0.000000
						}
					}
				}
			}
		}
	}
	JOINT RHipJoint
	{
		OFFSET 0.000000 0.000000 0.000000
		CHANNELS 3 Zrotation Yrotation Xrotation
		JOINT RightUpLeg
		{
			OFFSET -1.305520 -1.794630 0.839290
			CHANNELS 3 Zrotation Yrotation Xrotation
			JOINT RightLeg
			{
				OFFSET -2.542530 -6.985550 0.000000
				CHANNELS 3 Zrotation Yrotation Xrotation
				JOINT RightFoot
				{
					OFFSET -2.568260 -7.056230 0.000000
					CHANNELS 3 Zrotation Yrotation Xrotation
					JOINT RightToeBase
					{
						OFFSET -0.164730 -0.452590 2.363150
						CHANNELS 3 Zrotation Yrotation Xrotation
						End Site
						{
							OFFSET 0.000000 0.000000 0.000000
						}
					}
				}
			}
		}
	}
	JOINT LowerBack
	{
		OFFSET 0.000000 0.000000 0.000000
		CHANNELS 3 Zrotation Yrotation Xrotation
		JOINT Spine
		{
			OFFSET 0.028270 2.035590 -0.193380
			CHANNELS 3 Zrotation Yrotation Xrotation
			JOINT Spine1
			{
				OFFSET 0.056720 2.048850 -0.042750
				CHANNELS 3 Zrotation Yrotation Xrotation
				JOINT Neck
				{
					OFFSET 0.000000 0.000000 0.000000
					CHANNELS 3 Zrotation Yrotation Xrotation
					JOINT Neck1
					{
						OFFSET -0.054170 1.746240 0.172020
						CHANNELS 3 Zrotation Yrotation Xrotation
						JOINT Head
						{
							OFFSET 0.104070 1.761360 -0.123970
							CHANNELS 3 Zrotation Yrotation Xrotation
							End Site
							{
								OFFSET 0.000000 0.000000 0.000000
							}
						}
					}
				}
				JOINT LeftShoulder
				{
					OFFSET 0.000000 0.000000 0.000000
					CHANNELS 3 Zrotation Yrotation Xrotation
					JOINT LeftArm
					{
						OFFSET 3.362410 1.200890 -0.311210
						CHANNELS 3 Zrotation Yrotation Xrotation
						JOINT LeftForeArm
						{
							OFFSET 4.983000 -0.000000 -0.000000
							CHANNELS 3 Zrotation Yrotation Xrotation
							JOINT LeftHand
							{
								OFFSET 3.483560 -0.000000 -0.000000
								CHANNELS 3 Zrotation Yrotation Xrotation
								JOINT LeftFingerBase
								{
									OFFSET 0.000000 0.000000 0.000000
									CHANNELS 3 Zrotation Yrotation Xrotation
									JOINT LeftHandIndex1
									{
										OFFSET 0.715260 -0.000000 -0.000000
										CHANNELS 3 Zrotation Yrotation Xrotation
										End Site
										{
											OFFSET 0.000000 0.000000 0.000000
										}
									}
								}
								JOINT LThumb
								{
									OFFSET 0.000000 0.000000 0.000000
									CHANNELS 3 Zrotation Yrotation Xrotation
									End Site
									{
										OFFSET 0.000000 0.000000 0.000000
									}
								}
							}
						}
					}
				}
				JOINT RightShoulder
				{
					OFFSET 0.000000 0.000000 0.000000
					CHANNELS 3 Zrotation Yrotation Xrotation
					JOINT RightArm
					{
						OFFSET -3.136600 1.374050 -0.404650
						CHANNELS 3 Zrotation Yrotation Xrotation
						JOINT RightForeArm
						{
							OFFSET -5.241900 -0.000000 -0.000000
							CHANNELS 3 Zrotation Yrotation Xrotation
							JOINT RightHand
							{
								OFFSET -3.444170 -0.000000 -0.000000
								CHANNELS 3 Zrotation Yrotation Xrotation
								JOINT RightFingerBase
								{
									OFFSET 0.000000 0.000000 0.000000
									CHANNELS 3 Zrotation Yrotation Xrotation
									JOINT RightHandIndex1
									{
										OFFSET -0.622530 -0.000000 -0.000000
										CHANNELS 3 Zrotation Yrotation Xrotation
										End Site
										{
											OFFSET 0.000000 0.000000 0.000000
										}
									}
								}
								JOINT RThumb
								{
									OFFSET 0.000000 0.000000 0.000000
									CHANNELS 3 Zrotation Yrotation Xrotation
									End Site
									{
										OFFSET 0.000000 0.000000 0.000000
									}
								}
							}
						}
					}
				}
			}
		}
	}
}
MOTION
Frames: 7
Frame Time: 0.008333
4.387565 17.371214 1.320581 12.113466 -76.308895 10.208885 -10.559223 0.602253 0.917873 -9.422032 -0.393849 -21.248867 -2.309212 -1.276151 -5.769921 0.700634 6.358499 6.755310 1.967999 0.000000 -38.239500 9.846774 0.864283 -2.304154 1.186454 -11.083649 -15.525943 1.632809 1.471280 -3.994448 -2.373343 -15.226238 6.479780 -5.047000 0.000001 -61.544401 2.826300 -3.611890 3.091826 0.694381 -3.683673 -2.134555 -3.307259 -3.666663 0.678859 9.224097 -13.220403 -3.126780 -3.220173 -0.276651 1.067665 0.000000 0.000000 0.000000 5.192546 0.531347 -1.332584 -77.866877 1.393546 29.596000 -179.288784 -66.017342 -179.967705 -2.487403 4.740343 -0.103455 0.209624 0.357963 -0.000000 0.000000 0.000000 0.000000 0.000000 0.000000 0.000000 9.198627 -13.138584 1.322299 56.258454 22.124504 47.640787 178.428567 73.328612 179.994610 -5.223007 6.501707 -0.337225 0.317124 -0.530989 -0.000000 0.000000 0.000000 0.000000 0.000000 0.000000 0.000000 
4.385173 17.369867 1.307022 11.615116 -74.534143 10.469670 -10.562442 0.595416 1.146439 -9.207503 -1.425206 -21.097532 -2.291146 -1.256232 -5.704381 0.633956 5.930330 7.067786 1.890800 0.000000 -38.534900 9.832868 0.813785 -2.479763 1.258457 -11.874374 -14.879274 1.572864 1.464861 -3.972614 -2.554440 -16.141874 6.208970 -5.255400 0.000000 -61.174700 2.531819 -3.528143 3.036490 0.686326 -3.586784 -2.113780 -3.029441 -3.582412 0.788196 9.008663 -13.034530 -3.023279 -3.161371 -0.273630 1.095288 0.000000 0.000000 0.000000 5.123305 0.589313 -1.351731 -77.917538 0.192691 30.409840 -179.259457 -66.243638 -179.969043 -2.328021 4.773160 -0.097325 0.198166 0.363622 -0.000000 0.000000 0.000000 0.000000 0.000000 0.000000 0.000000 8.961453 -13.043178 1.523862 54.419849 23.565287 48.043354 178.435723 73.154745 179.994711 -5.241550 6.429985 -0.334859 0.319790 -0.526113 -0.000000 0.000000 0.000000 0.000000 0.000000 0.000000 0.000000 
4.382180 17.368514 1.292113 11.242391 -72.796825 10.589087 -10.553528 0.591689 1.367274 -9.019081 -2.417287 -20.927637 -2.280170 -1.238172 -5.635528 0.568443 5.509605 7.378380 1.811799 0.000000 -38.804800 9.831774 0.761066 -2.641352 1.306628 -12.637068 -14.240391 1.509256 1.453292 -3.931025 -2.733928 -17.039380 5.944767 -5.454100 -0.000000 -60.806500 2.220516 -3.432931 2.978357 0.679598 -3.476554 -2.089472 -2.726466 -3.485751 0.910334 8.730951 -12.852193 -2.910807 -3.087632 -0.269788 1.125276 0.000000 0.000000 0.000000 5.014670 0.665623 -1.372124 -77.971185 -1.067752 31.244962 -179.223194 -66.489422 -179.969802 -2.255741 4.746948 -0.093413 0.189312 0.371138 -0.000000 0.000000 0.000000 0.000000 0.000000 0.000000 0.000000 8.623452 -12.942638 1.734108 52.458858 25.118664 48.420095 178.457952 73.011104 179.994395 -5.240240 6.217455 -0.324022 0.320489 -0.515985 -0.000000 0.000000 0.000000 0.000000 0.000000 0.000000 0.000000 
4.378804 17.367263 1.276047 10.956914 -71.112644 10.601591 -10.533878 0.591041 1.579185 -8.856225 -3.363543 -20.738092 -2.275420 -1.221447 -5.561077 0.504550 5.101442 7.682000 1.732400 -0.000000 -39.049500 9.842372 0.706607 -2.789523 1.332329 -13.370255 -13.609240 1.443603 1.437053 -3.872079 -2.909068 -17.907698 5.690344 -5.640899 -0.000000 -60.445200 1.898044 -3.326532 2.917577 0.674849 -3.353490 -2.063150 -2.400664 -3.377124 1.038366 8.383302 -12.657154 -2.782185 -2.995923 -0.265034 1.159707 0.000000 0.000000 0.000000 4.860539 0.760227 -1.390476 -78.023206 -2.369073 32.092548 -179.181362 -66.752546 -179.969903 -2.271627 4.677160 -0.092025 0.183305 0.379764 -0.000000 0.000000 0.000000 0.000000 0.000000 0.000000 0.000000 8.154165 -12.812322 1.946945 50.381477 26.757874 48.737095 178.497645 72.900468 179.993758 -5.208103 5.895339 -0.305817 0.318304 -0.501485 -0.000000 0.000000 0.000000 0.000000 0.000000 0.000000 0.000000 
4.374936 17.366212 1.259012 10.737484 -69.498785 10.529623 -10.504902 0.594001 1.780235 -8.720548 -4.253044 -20.528537 -2.276565 -1.205664 -5.480403 0.442682 4.707230 7.976147 1.653000 0.000000 -39.263500 9.864049 0.650830 -2.924195 1.335603 -14.070687 -12.984886 1.377187 1.417087 -3.803240 -3.077047 -18.737115 5.452947 -5.815700 0.000000 -60.097300 1.568133 -3.211635 2.854723 0.672438 -3.220379 -2.035646 -2.055160 -3.259180 1.167894 7.966505 -12.432740 -2.633949 -2.886927 -0.259476 1.199557 0.000000 0.000000 0.000000 4.656015 0.878083 -1.403712 -78.068324 -3.688471 32.941568 -179.135986 -67.020281 -179.969421 -2.357881 4.585163 -0.092761 0.179745 0.388571 -0.000000 0.000000 0.000000 0.000000 0.000000 0.000000 0.000000 7.552247 -12.633475 2.157383 48.156942 28.476568 48.966380 178.555650 72.808511 179.992846 -5.163944 5.520815 -0.284439 0.313435 -0.484564 -0.000000 0.000000 0.000000 0.000000 0.000000 0.000000 0.000000 
4.370858 17.365325 1.241150 10.569028 -67.967514 10.388707 -10.468064 0.599581 1.969386 -8.610311 -5.085668 -20.298903 -2.282297 -1.190672 -5.393150 0.383767 4.335729 8.256517 1.576299 0.000000 -39.450900 9.895223 0.594342 -3.046420 1.316951 -14.736020 -12.368339 1.311153 1.393956 -3.728429 -3.235921 -19.519069 5.232219 -5.976399 0.000000 -59.763800 1.240926 -3.087272 2.790386 0.673187 -3.076731 -2.010363 -1.694259 -3.131178 1.284440 7.467018 -12.153806 -2.456245 -2.754711 -0.252894 1.247714 0.000000 0.000000 0.000000 4.397838 1.016700 -1.407491 -78.100616 -5.004477 33.782600 -179.089395 -67.288201 -179.968442 -2.499560 4.492287 -0.095523 0.178277 0.396589 -0.000000 0.000000 0.000000 0.000000 0.000000 0.000000 0.000000 6.756796 -12.366321 2.352287 45.828280 30.180376 49.084763 178.634232 72.735136 179.991836 -5.113360 5.181783 -0.264587 0.305288 -0.468048 -0.000000 0.000000 0.000000 0.000000 0.000000 0.000000 0.000000 
4.366419 17.364863 1.222748 10.441277 -66.534371 10.193749 -10.425120 0.608094 2.144445 -8.527830 -5.848376 -20.053253 -2.292590 -1.176290 -5.301479 0.327912 3.983646 8.524366 1.501600 0.000000 -39.603500 9.934909 0.537578 -3.155358 1.277859 -15.360853 -11.761243 1.246390 1.369252 -3.660631 -3.383717 -20.249264 5.038604 -6.126400 -0.000000 -59.451200 0.917756 -2.957929 2.725397 0.676994 -2.927019 -1.986789 -1.322036 -2.997338 1.389347 6.898746 -11.810492 -2.255665 -2.605656 -0.245645 1.302320 0.000000 0.000000 0.000000 4.083104 1.192647 -1.400137 -78.113848 -6.297069 34.605488 -179.043504 -67.541275 -179.967272 -2.659683 4.419312 -0.099303 0.177677 0.403004 -0.000000 0.000000 0.000000 0.000000 0.000000 0.000000 0.000000 5.816554 -12.009568 2.528604 43.308870 31.891511 49.081045 178.732526 72.644885 179.990661 -5.108195 4.953476 -0.252647 0.295411 -0.454745 -0.000000 0.000000 0.000000 0.000000 0.000000 0.000000 0.000000 
